<?xml version="1.0" encoding="iso-8859-1"?>
<!-- Generator: Adobe Illustrator 19.0.0, SVG Export Plug-In . SVG Version: 6.00 Build 0)  -->
<svg version="1.1" id="Layer_1" xmlns="http://www.w3.org/2000/svg" xmlns:xlink="http://www.w3.org/1999/xlink" x="0px" y="0px"
	 viewBox="0 0 460.8 460.8" style="enable-background:new 0 0 460.8 460.8;" xml:space="preserve">
<g>
	<g>
		<path d="M371.2,38.4h-64V12.8c0-7.071-5.729-12.8-12.8-12.8h-128c-7.071,0-12.8,5.729-12.8,12.8v25.6h-64
			c-21.207,0-38.4,17.193-38.4,38.4v345.6c0,21.207,17.193,38.4,38.4,38.4h281.6c21.207,0,38.4-17.193,38.4-38.4V76.8
			C409.6,55.593,392.407,38.4,371.2,38.4z M179.2,25.6h102.4v25.6H179.2V25.6z M371.2,422.4H89.6V76.8h281.6V422.4z"/>
	</g>
</g>
<g>
	<g>
		<polygon points="243.2,243.2 243.2,153.6 217.6,153.6 217.6,243.2 128,243.2 128,268.8 217.6,268.8 217.6,358.4 243.2,358.4 
			243.2,268.8 332.8,268.8 332.8,243.2 		"/>
	</g>
</g>
<g>
</g>
<g>
</g>
<g>
</g>
<g>
</g>
<g>
</g>
<g>
</g>
<g>
</g>
<g>
</g>
<g>
</g>
<g>
</g>
<g>
</g>
<g>
</g>
<g>
</g>
<g>
</g>
<g>
</g>
</svg>
